# xmcd CD database file
#
# Track frame offsets:
#	150
#	13326
#	26472
#	40492
#	51197
#	64965
#	77276
#	89425
#	100427
#	111085
#	124604
#	138079
#	151428
#	164924
#	177374
#	190224
#	203812
#	216650
#	230131
#	241858
#	254452
#	266828
#	278608
#	291663
#	303764
#	316496
#	330755
#	343248
#
# Disc length: 4734 seconds
#
# Revision: 2
# Processed by: cddbd v1.5.2PL0 Copyright (c) Steve Scherf et al.
# Submitted via: CDex 1.51
#
DISCID=a9127c1c
DTITLE=Fats Waller - Volume 4 of The Complete Recorded Woks  Cd 1
DYEAR=1900
DGENRE=Jazz
TTITLE0=S'posin'
TTITLE1=Copper colored gal
TTITLE2=I'm at the mercy of love
TTITLE3=Floatin' down to cotton town
TTITLE4=La-de-de, la-de-da
TTITLE5=Hallelujah! Things look rosy now
TTITLE6=Hallelujah! things look rosy now [instrumental]
TTITLE7='Tain't good (Like a nickel made of wood)
TTITLE8='Tain't Good (Like a Nickel Made of Wood) [instrumental]
TTITLE9=Swingin' them jingle bells
TTITLE10=Swingin' them jingle bells [intrumental]
TTITLE11=Thousand dreams of you
TTITLE12=Thousand dreams of you [instrumental]
TTITLE13=Rhyme for love
TTITLE14=I adore you
TTITLE15=Havin' a ball
TTITLE16=I'm sorry I made you cry
TTITLE17=Who's afraid of love?
TTITLE18=Please keep me in your dreams
TTITLE19=One in a million
TTITLE20=Nero
TTITLE21=You're laughing at me
TTITLE22=I can't break the habit of you
TTITLE23=Did anyone ever tell you?
TTITLE24=When love is young
TTITLE25=Meanest thing you ever did was kiss me
TTITLE26=Cryin' mood
TTITLE27=Where is the sun?
EXTD=
EXTT0=
EXTT1=
EXTT2=
EXTT3=
EXTT4=
EXTT5=
EXTT6=
EXTT7=
EXTT8=
EXTT9=
EXTT10=
EXTT11=
EXTT12=
EXTT13=
EXTT14=
EXTT15=
EXTT16=
EXTT17=
EXTT18=
EXTT19=
EXTT20=
EXTT21=
EXTT22=
EXTT23=
EXTT24=
EXTT25=
EXTT26=
EXTT27=
PLAYORDER=
